<?xml version="1.0" encoding="UTF-8"?>
<svg width="700pt" height="700pt" version="1.1" viewBox="0 0 700 700" xmlns="http://www.w3.org/2000/svg">
 <path d="m621.46 233.98c0.55859-0.59375 1.0664-1.1445 1.4688-1.6016 7.2109-8.2461 12.496-19.184 5.6953-25.148-1.6758-1.4609-3.8008-2.2305-6.1523-2.2305-7.3906 0-15.059 7.8438-18.02 11.223-0.30859 0.34766-0.58203 0.72266-0.875 1.082-1.9141-6.25-5.668-13.848-12.77-13.848-0.375 0-1.0508 0.054687-1.4297 0.11719-2.6602 0.4375-7.3203 2.4375-8.7031 10.922-0.62109 3.8164-0.52734 8.5938 0.27344 13.445 0.58984 3.5703 2.6133 13.117 7.7734 17.816-9.7266 31.363-29.246 51.582-42.555 62.301 0.15234-4.0312-0.19922-7.668-0.86328-10.738-2.4688-11.402-9.1758-19.965-15.941-25.309 10.152-15.969 8.1484-31.176 5.7852-39.363-3.2188-11.102-10.398-20.68-18.684-25.387-0.69141-19.453-9.8242-28.844-17.691-33.336-9.0898-5.1953-19.742-5.6055-27.227-3.875-10.391-14.254-23.012-18.266-32.164-19.016-9.832-0.80469-18.887 1.9023-24.863 5.6992-13.918-8.6484-27.117-11.605-39.355-8.8242-9.9648 2.2695-16.934 7.918-21.293 12.598-4.4688-3.2383-9.7266-4.8477-15.484-4.5078-6.1055 0.37109-12.238 2.9609-16.691 6.6406-9.6523-8.5234-21.621-12.148-33.875-10.039-7.2617 1.2539-13.707 4.4844-17.906 8.7109-20.945-9.1953-34.852-0.69922-41.543 5.5898-5.3477 5.0312-9.3359 11.738-11.09 17.828-13.625-1.5195-21.562 3.8164-25.984 9.0703-6.8438 8.1484-8.2695 19.789-7.6094 27.484-11.34 7.1055-18.637 16.102-21.711 26.797-3.9258 13.641 0.12109 26.566 3.6914 34.371-0.59375 0.61328-1.1367 1.2188-1.6914 1.8281-18.078 6.707-28.371 15.242-29.352 16.074-2.9414 2.5117-3.2891 6.9336-0.77734 9.8672 1.3828 1.625 3.3477 2.4531 5.3242 2.4531 1.6094 0 3.2266-0.55078 4.543-1.6797 0.11719-0.097656 2.8242-2.3359 7.8477-5.2969-3.5039 12.363-0.78125 22.75 1.3164 28.059 1.3086 3.3203 3.0898 6.3242 5.043 9.1328-12.574-6.7461-29.785-17.684-40.938-31.672 0.83203-1.5742 1.5-3.5664 1.8008-6.2227 0.42969-3.8398 0.097656-8.6055-0.94141-13.426-1-4.6406-5.0352-19.785-14.906-19.785-0.49609 0-1.375 0.09375-1.8555 0.19922-6.9961 1.5039-8.8477 9.418-8.1953 17.965-0.40625-0.22266-0.79297-0.46094-1.207-0.67578-5.7656-2.9805-11.602-4.6914-16.004-4.6914-6.1758 0-8.7734 3.2383-9.7812 5.1758-3.4688 6.7188 2.0898 14.887 14.516 21.316 0.65625 0.33984 1.3125 0.60156 1.9688 0.91016-3.5586 3.1914-7.4766 7.6445-8.2695 12.383-0.43359 2.5742 0.10547 5.082 1.5117 7.0469 1.0391 1.4609 3.4883 3.9102 8.2305 3.9102h0.003906c6.7188 0 14.379-4.9336 17.359-7.0508 2.5938-1.8438 4.9102-3.8711 6.875-5.918 19.074 22.215 49.516 36.461 58.16 40.191-4.4531 12.133-3.1562 21.738-0.61328 28.293 4.2773 11.035 13.418 18.273 22.602 22.277-8.1562 16.113-6.4258 33.312 5.1758 47.367 7.6211 9.2305 17.746 14.754 26.824 15.266 1.2695 7.3086 5.9492 13.277 13.332 16.523 7.6992 3.3984 16.418 2.7891 22.594-1.0742 8.9453 4.9219 16.965 6.5156 23.59 6.5156 3.7852 0 7.1211-0.51953 9.9102-1.2305 8.8867-2.2773 16.691-7.582 22.113-14.895 1.0859 0.26172 2.1484 0.30078 3.2227 0.4375-1.7734 12.953-6.4766 32.34-19.043 48.699-1.1914 1.5508-1.6836 3.5352-1.3477 5.4609 0.33594 1.9258 1.4648 3.6289 3.1055 4.6914 7.4375 4.7852 19.66 12.223 19.66 12.223l7.2734-11.965c-0.011719-0.007813-6.7344-4.0938-13.188-8.1289 12.348-19.078 16.477-40.031 17.871-52.938 1.6797-0.76562 3.3125-1.6836 4.8672-2.8164 6.1211-4.4727 10.379-11.504 11.777-18.895 6.3789-0.44531 10.863-2.6992 14.047-5.3594 3.5898 2.3789 7.5352 3.8711 11.449 4.3828 2.0859 5.5898 6.8711 10.438 13.441 13.262 5.9805 2.5625 12.121 2.9531 17.289 1.2852 0.82812 1.1016 1.8164 2.0703 2.7812 3.0703-1.4766 12.516-5.8867 34.363-19.332 51.871-1.1953 1.5508-1.6836 3.5352-1.3477 5.4688 0.33594 1.9258 1.4648 3.6289 3.1094 4.6836 7.4375 4.7852 19.66 12.223 19.66 12.223l7.2734-11.965c-0.007812-0.007812-6.7344-4.1016-13.191-8.1367 9.8008-15.191 14.504-31.895 16.754-45.684 1.6602 0.63672 3.3438 1.2383 5.1289 1.6602 3.1641 0.75391 6.3711 1.1211 9.5586 1.1211 8.375 0 16.57-2.543 23.363-7.3398 28.102 5.6875 42.426-7.6992 48.562-16.441 8.7969-12.559 11.039-29.77 8.2109-41.535 12.477-5.543 21.465-16.105 25.676-30.395 4.9102-16.645 2.6133-37.023-5.0586-49.562 3.0898-4.1602 5.4258-8.1406 7.2852-11.969 8.1914-4.6953 44.426-27.73 60.52-75.992 2.5078 1.1602 5.4023 2.1797 8.6836 2.9961 3.8203 0.94531 7.6133 1.4492 10.965 1.4492 10.473 0 13.27-4.9492 14.008-7.9062 1.7891-7.1836-5.0078-12.434-13.352-15.566zm-96.457 152.59c-2.5234 8.5508-8.5938 19.551-23.188 23.406-2.1953 0.57422-3.9648 2.1797-4.7656 4.293-0.80078 2.1211-0.52734 4.4922 0.73828 6.3711 3.1836 4.75 3.8281 21.602-4.7109 33.785-7.6641 10.93-20.145 14.336-37.098 10.129-2.1875-0.53516-4.5195 0.011718-6.2344 1.4766-6.3086 5.4062-15.066 7.457-23.461 5.4688-7.1367-1.6914-12.633-6.0039-15.078-11.828-0.91797-2.1875-2.8789-3.7617-5.207-4.1836-2.3516-0.41797-4.7227 0.375-6.3438 2.0977-1.6211 1.7031-5.4766 1.7773-9.1953 0.19922-3.0625-1.3203-6.2891-4.0664-6.125-6.9883 0.12109-2.1133-0.71875-4.1641-2.2852-5.5859-1.5664-1.4141-3.6719-2.043-5.7852-1.7305-5.0195 0.77344-11.75-2.0898-14.547-10.273-1.25-3.6562-5.2227-5.6328-8.8867-4.3633-3.6562 1.25-5.6133 5.2305-4.3633 8.8867 0.60156 1.7578 1.3477 3.3633 2.1641 4.8789-1.832 1.2695-4.9102 2.2891-10.352 1.5938-2.1133-0.24609-4.2539 0.4375-5.7852 1.9414-1.5312 1.4883-2.293 3.6016-2.0703 5.7344 0.52734 5.0234-2.1914 10.945-6.4648 14.062-4 2.9258-8.957 3.2188-14.332 0.85547-3.3477-1.457-7.2773-0.10156-9 3.1367-3.3672 6.3555-9.5039 11.211-16.426 12.973-8.2734 2.1211-17.59-0.027344-26.938-6.1914-3.125-2.0508-7.293-1.3008-9.5039 1.707-1.6758 2.2852-6.6172 2.7617-10.551 1.0312-2.9961-1.3203-6.3008-4.2031-5.0469-10.488 0.51562-2.5977-0.47656-5.2617-2.5625-6.8906-2.082-1.6133-4.9102-1.9258-7.3008-0.80078-3.6172 1.7227-13.016-1.1484-20.082-9.7148-4.418-5.3516-13.242-19.789 0.26172-38.18 1.4023-1.9062 1.7422-4.3945 0.90625-6.6094-0.83203-2.2227-2.7344-3.8633-5.0469-4.3672-8.0273-1.7617-17.926-7.0547-21.637-16.633-3.3555-8.6523-0.73438-19.449 7.582-31.207 1.5273-2.1602 1.707-4.9961 0.46484-7.3281-1.2422-2.332-3.4453-3.9492-6.3398-3.707-2.9961-0.011719-10.641-5.1484-14.504-14.922-2.5781-6.5234-4.6133-18.578 6.043-32.113 22.301-7.4492 56.934-11.367 100.57 7.8242-0.011719 0.44922-0.066406 0.89453-0.066406 1.3516 0 26.074 21.211 47.289 47.289 47.289 25.309 0 45.969-20 47.164-45.02 5.2617-1.1133 11.203-1.1797 16.578-0.17188 1.1055 25.098 21.812 45.188 47.184 45.188 26.066 0 47.277-21.211 47.277-47.289 0-26.074-21.211-47.285-47.277-47.285-21.965 0-40.422 15.066-45.719 35.395-6.3516-1.043-13.172-1.0156-19.469 0.10938-5.2578-20.379-23.738-35.504-45.734-35.504-20.637 0-38.184 13.305-44.621 31.773-39.137-16.52-71.504-16.09-95.285-10.613-2.7539-5.0742-7.6484-16.293-4.3945-27.602 2.3789-8.2695 8.8828-15.305 19.336-20.91 3.2812-1.7617 4.7578-5.418 3.1719-8.7852-0.82031-2.7227-0.96094-14.324 4.6914-20.125 3.832-3.9375 10.273-4.7031 19.137-2.293 2.6562 0.70703 5.4727-0.17188 7.2266-2.2812 1.5586-1.875 2.0156-4.4062 1.2617-6.6797 0.097656-2.582 3.3906-11.598 11.23-16.508 7.4336-4.6602 16.613-3.9883 27.273 2 1.8125 1.0234 3.9727 1.1758 5.9023 0.44531 1.9375-0.73438 3.4531-2.2852 4.1328-4.2422 0.46094-1.3164 4.3984-4.9648 11.41-6.1758 5.7188-1 16.781-0.84375 26.52 11.254 1.6172 2.0078 4.1992 2.9961 6.7383 2.5195 2.5391-0.48047 4.5938-2.2852 5.3672-4.7461 0.59375-1.3828 5.3047-5.4141 11.012-5.4727h0.11719c2.8008 0 5.168 1.1602 7.2305 3.25-0.81641 1.0156-1.457 2.1836-1.5898 3.5703-0.37109 3.8477 2.4492 7.2695 6.3008 7.6406 0.074219 0.007812 7.3477 0.90625 10.652 5.7539 1.293 1.8906 1.793 4.3672 1.6836 7.2773-2.332 0.66797-4.3008 2.418-4.9219 4.9453-0.92969 3.7539 1.3672 7.5469 5.1211 8.4727 0.066407 0.015626 7.0195 1.9492 9.8359 7.5039 1.9766 3.9062 1.6328 9.1367-1.0195 15.543-1.4766 3.5703 0.21875 7.668 3.7852 9.1445 0.875 0.36328 1.7852 0.53516 2.6797 0.53516 2.7422 0 5.3516-1.6289 6.4648-4.3281 4.2852-10.348 4.4766-19.504 0.57422-27.215-2.3242-4.5938-5.6875-7.793-8.9609-10.059 1.1758-7.6289 0.027343-14.273-3.6758-19.707-2.8711-4.2148-6.6797-6.8789-10.281-8.6367-0.074218-0.21875-0.054687-0.44531-0.15234-0.66016-0.25391-0.55469-0.55469-1.0352-0.82812-1.5664 2.7227-3.2578 7.9023-8.1953 15.586-9.8945 9.4805-2.1094 20.398 1.1523 32.484 9.6133 2.9805 2.0859 7.0195 1.543 9.3633-1.2109 1.707-2.0273 8.9414-5.6562 17.949-4.9414 9.8164 0.80859 18.285 6.7188 24.492 17.105 0.96484 1.6133 2.5625 2.7578 4.3867 3.1992 1.8125 0.42969 3.7734 0.11328 5.3711-0.88281 1.832-1.1484 11.477-2.8555 19.395 1.707 7.4375 4.2773 11 12.84 10.59 25.438-0.10156 3.1367 1.8945 5.9609 4.8867 6.9023 4.9766 1.5703 11.492 8.2812 14.328 18.086 1.9062 6.582 3.4375 19.602-7.7305 32.812-1.4023 1.6523-1.957 3.8672-1.4961 5.9844 0.44922 2.1211 1.8672 3.9102 3.8203 4.8477 6.0977 2.9219 13.207 10.27 15.34 20.094 2.3867 11.031-1.9023 23.492-12.414 36.043-2.25 2.6875-2.168 6.6211 0.19141 9.207 6.3203 6.9531 10.172 25.52 5.5898 41.059zm-171.98-80.895c0 18.355-14.93 33.289-33.281 33.289-18.355 0-33.289-14.934-33.289-33.289 0-18.355 14.934-33.285 33.289-33.285 18.352 0 33.281 14.93 33.281 33.285zm77.641-33.285c18.348 0 33.277 14.93 33.277 33.285 0 18.355-14.93 33.289-33.277 33.289-18.355 0-33.293-14.934-33.293-33.289 0.003907-18.355 14.938-33.285 33.293-33.285z"/>
 <path d="m474.97 365.98c-1.4336-2.8086-3.457-4.7383-6.0586-5.75-6.0586-2.3789-12.379 1.543-13.078 1.9961-1.6133 1.0508-2.0703 3.207-1.0312 4.8242 1.0391 1.6133 3.1836 2.0859 4.832 1.0586 1.0117-0.64453 4.4492-2.2617 6.7461-1.3594 1.4883 0.59375 2.6133 2.3086 3.3281 5.0977 0.30078 1.1602 1.168 2.0898 2.3047 2.4609 1.1484 0.375 2.3945 0.14453 3.3164-0.62891 3.4727-2.8633 6.2773-0.33594 7.3359 0.88672 2.2422 2.5977 3.8203 8.0586-1.0195 12.434-1.4336 1.3008-1.543 3.5117-0.25391 4.9414 0.69141 0.76562 1.6406 1.1562 2.5977 1.1562 0.83984 0 1.6758-0.30078 2.3438-0.90234 7.5898-6.8555 6.5-16.559 1.6289-22.203-3.5664-4.1289-8.4609-5.5234-12.992-4.0117z"/>
 <path d="m483.59 238.85c-0.48438 1.8711 0.64453 3.7812 2.5156 4.2656 0.29297 0.078124 0.58984 0.11328 0.875 0.11328 1.5586 0 2.9805-1.0469 3.3906-2.6211 2.1875-8.4531-0.73047-15.66-8.0039-19.785-3.3281-1.8867-7.7109-2.9766-11.168-2.6406-2.4961-5.1055-5.9727-8.5195-10.379-10.16-7.9492-2.9727-15.73 1.2344-16.051 1.4141-1.6875 0.93359-2.2969 3.0469-1.375 4.7383 0.91016 1.6836 3.043 2.3125 4.7383 1.4023 0.054687-0.027344 5.3594-2.8438 10.289-0.97656 3.2188 1.2227 5.7539 4.293 7.5273 9.125 0.41797 1.125 1.1914 2.0977 2.3633 2.3555 1.1836 0.24219 2.207 0.027344 3.0508-0.82812 1.0586-0.4375 5.9414-0.058594 9.5273 3.0508 2.9453 2.5469 3.8555 6.0977 2.6992 10.547z"/>
 <path d="m262.53 206.76c-3.7695 3.7852-5.8398 8.7383-5.9414 13.184-7.2734-1.8203-13.168-1.082-17.578 2.2383-8.9258 6.707-7.5352 21.172-7.4727 21.781 0.1875 1.7969 1.707 3.1328 3.4766 3.1328 0.12109 0 0.23828-0.007812 0.36328-0.015625 1.918-0.19922 3.3203-1.9141 3.1289-3.8359-0.30859-3.0898-0.0625-11.902 4.7227-15.48 3.5508-2.6602 9.3359-2.3867 17.188 0.80859 1.5 0.61328 3.2383 0.10156 4.1719-1.2188 0.9375-1.3242 0.83984-3.125-0.23438-4.3398-1.7227-1.9492-0.61328-7.5508 3.1328-11.312 5.168-5.1602 12.34-4.4258 19.691 2.0312 1.4609 1.2734 3.668 1.1367 4.9375-0.31641 1.2773-1.4531 1.1367-3.6641-0.31641-4.9375-12.172-10.703-23.105-7.9062-29.27-1.7188z"/>
 <path d="m230.41 341.59c1.7695-1.4336 5.7852-3.6133 9.6602-2.5898 3.3242 0.86328 6.0625 3.9336 8.1523 9.1406 0.54688 1.3672 1.8594 2.1953 3.2461 2.1953 0.43359 0 0.875-0.082031 1.3008-0.25391 1.793-0.71875 2.668-2.7539 1.9453-4.5508-2.9609-7.375-7.293-11.855-12.891-13.305-4.2031-1.0898-8.4062-0.21484-11.789 1.3984-2.3398-5.4102-5.6758-8.9844-9.9531-10.66-7.3945-2.8828-14.492 1.2969-14.785 1.4766-1.6562 0.99609-2.1953 3.1445-1.1992 4.8008 0.99219 1.6562 3.1406 2.1953 4.8008 1.1992 0.042968-0.027344 4.4766-2.582 8.6328-0.95703 3.1992 1.2461 5.6562 4.7422 7.3125 10.379 0.33203 1.125 1.1992 2.0117 2.3164 2.3594 1.125 0.33203 2.3438 0.10938 3.25-0.63281z"/>
 <path d="m283.79 395.68c-1.7578-0.80859-3.8359-0.042969-4.6445 1.707-0.042969 0.082031-4.0117 8.3203-10.301 9.2695-3.9531 0.61328-8.3633-1.7852-13.133-7.0742-1.3047-1.4414-3.5117-1.5586-4.9453-0.25391-1.4336 1.293-1.5469 3.5078-0.25781 4.9414 0.48047 0.53516 0.96875 0.91797 1.4531 1.4102-1.6367 4.3281-3.8867 7.0977-6.7812 8.0312-5.0391 1.6211-11.668-2.125-13.781-3.7109-1.543-1.1758-3.7383-0.85547-4.9023 0.68359-1.1602 1.5391-0.86328 3.7266 0.66797 4.8945 0.35547 0.26562 7.3945 5.5352 15.281 5.5352 1.5977 0 3.2344-0.21094 4.8555-0.73828 4.4414-1.4219 7.8555-4.8398 10.277-10.027 3.3477 2.1797 6.6953 3.4023 10.023 3.4023 0.76172 0 1.5234-0.0625 2.2852-0.17188 10.074-1.5234 15.387-12.777 15.605-13.254 0.8125-1.7539 0.046875-3.832-1.7031-4.6445z"/>
 <path d="m411.98 312.6c3.2266 2.0781 7.5469 1.1328 9.6523-2.0781 0.042969-0.054688 3.7656-5.5352 8.8672-5.9727 4.6562-0.31641 9.4062 3.5703 12.578 6.9648 1.3789 1.4805 3.2461 2.2266 5.1211 2.2266 1.707 0 3.4258-0.62109 4.7773-1.8828 2.8242-2.6367 2.9727-7.0664 0.33984-9.8906-7.7656-8.3164-15.941-12.148-24.199-11.348-11.859 1.1172-18.566 11.238-19.293 12.387-2.0469 3.2461-1.0781 7.5156 2.1562 9.5938z"/>
 <path d="m316.88 290.62c-11.855 1.1172-18.566 11.238-19.293 12.387-2.0508 3.25-1.082 7.5195 2.1484 9.5977 3.2305 2.0742 7.5547 1.1328 9.6602-2.0781 0.039063-0.054688 3.7617-5.5352 8.8633-5.9727 4.6211-0.37109 9.4102 3.5664 12.582 6.9648 1.3789 1.4805 3.2461 2.2266 5.1172 2.2266 1.7109 0 3.4297-0.62109 4.7734-1.8828 2.8281-2.6367 2.9805-7.0664 0.33984-9.8906-7.75-8.3164-15.871-12.105-24.191-11.352z"/>
 <path d="m416.5 371.04c-6.0898-11.066-13.973-13.391-19.516-13.391-3.7383 0-7.7383 1.0508-11.875 3.125-5.6445 2.8242-14.426 1.5781-25.965-3.6289-2.8867-1.3047-5.8398-1.9609-8.7812-1.9609-10.832 0-17.113 8.6484-18.074 10.074-8.6328 14.754-6.0156 25.582-2.2969 32.059 1.4297 2.4961 3.2969 4.6133 5.332 6.5703 0.25 0.23828 0.46875 0.5 0.75 0.69922 9.8242 8.9023 25.004 12.352 36.777 12.352 20.145 0 34.078-5.4062 41.398-16.066 5.5352-8.0742 6.5273-18.902 2.6523-28.973-0.11719-0.29297-0.25-0.58203-0.40234-0.85938zm-72.402 1.7188c0.023438-0.035157 2.6953-3.582 6.2695-3.582 0.95312 0 1.9375 0.23047 3.0117 0.71875 15.902 7.1836 28.316 8.2383 38 3.3906 2.1758-1.0859 4.0586-1.6406 5.6055-1.6406 1.0391 0 3.7383 0 7.0117 5.7148 0.92188 2.6055 2.7891 9.6328-1.293 15.578-0.49219 0.71875-1.082 1.3789-1.7148 2.0234-21.684-17.617-45.59-11.102-58.957-4.9023-2.5469-4.7148-1.793-10.66 2.0664-17.301zm11.195 27.105c9.0039-2.8516 20.016-3.7656 30.727 1.9336-3.875 0.72656-8.2383 1.1367-13.168 1.1367-5.6992 0-12.023-1.0469-17.559-3.0703z"/>
 <path d="m604.64 341.29c0 5.4336-4.4062 9.8398-9.8438 9.8398-5.4336 0-9.8398-4.4062-9.8398-9.8398 0-5.4375 4.4062-9.8438 9.8398-9.8438 5.4375 0 9.8438 4.4062 9.8438 9.8438"/>
 <path d="m569.82 386.92c0 3.2617-2.6445 5.9102-5.9062 5.9102-3.2656 0-5.9102-2.6484-5.9102-5.9102 0-3.2656 2.6445-5.9102 5.9102-5.9102 3.2617 0 5.9062 2.6445 5.9062 5.9102"/>
 <path d="m156.99 176.02c0 7.1797-5.8242 13-13.004 13-7.1797 0-13-5.8203-13-13 0-7.1836 5.8203-13.004 13-13.004 7.1797 0 13.004 5.8203 13.004 13.004"/>
</svg>
